# xmcd
#
# Track frame offsets: 
#        150
#        23797
#        39034
#        56255
#        78457
#        96887
#        108045
#        121380
#        135944
#        141614
#        158462
#        174713
#        182632
#        197804
#        206163
#        223374
#        236751
#        250085
#        252280
#        256726
#        261959
#        264814
#        271295
#        274119
#        300671
#        305812
#        310722
#        313944
#        320439
#        323321
#        330877
#        334490
#
# Disc length: 4580 seconds
#
# Revision: 0
# Processed by: cddbd v1.5.1PL0 Copyright (c) Steve Scherf et al.
# Submitted via: ExactAudioCopy v0.95b2
#
DISCID=c511e220
DTITLE=Wasowski i Przybora - Piosenki jeszcze Starszych Panow - CD 4 -
DTITLE=Pejzaz bez Ciebie (Telefon zaufania, kabaret jeszcze Starszych
DTITLE=Panow, bonusy)
DYEAR=2003
DGENRE=Bebob
TTITLE0=Pejzaz bez Ciebie - H. Banaszak (Telefon zaufania)
TTITLE1=Panienka z temperamentem - H. Banaszak (Telefon zaufania)
TTITLE2=Zegnaj, kotku - H. Banaszak (Telefon zaufania)
TTITLE3=Na wypadek, gdyby to nie skonczylo sie malzenstwem - H. Banasz
TTITLE3=ak (Telefon zaufania)
TTITLE4=Ja dla Pana czasu nie mam - H. Banaszak (Telefon zaufania)
TTITLE5=Cisza lesna - W. Michnikowski (Kabaret jeszcze Starszych Panow
TTITLE5=)
TTITLE6=Walczyk watpliwosci - B. Lazuka (Kabaret jeszcze Starszych Pan
TTITLE6=ow)
TTITLE7=Jak zatrzymac te chwile - K. Jedrusik (Kabaret jeszcze Starszy
TTITLE7=ch Panow)
TTITLE8=Przeprowadzka - J. Przybora, J. Wasowski (Kabaret jeszcze Star
TTITLE8=szych Panow)
TTITLE9=Jesienne listy - zespol Kmiecie (Kabaret jeszcze Starszych Pan
TTITLE9=ow)
TTITLE10=Bizuteria - B. Krafftowna (Kabaret jeszcze Starszych Panow)
TTITLE11=Te kuligi - M. Czechowicz, B. i M. Winiarskie (Kabaret jeszcz
TTITLE11=e Starszych Panow)
TTITLE12=Ballada o ksiestwie Zascianko - I. Kwiatkowska, J. Wasowski, 
TTITLE12=J. Przybora (Kabaret jeszcze Starszych Panow)
TTITLE13=Weltschmerz - J. Przybora, J. Wasowski (Kabaret jeszcze Stars
TTITLE13=zych Panow)
TTITLE14=Zakochamy sie tak jak trzeba - R. Frankl, J. Szczepkowska (Ka
TTITLE14=baret jeszcze Starszych Panow)
TTITLE15=Jeszcze w zimie mialam imie - R. Buharowska (Kabaret jeszcze 
TTITLE15=Starszych Panow)
TTITLE16=Niespodziewany koniec lata - K. Jedrusik (Kabaret jeszcze Sta
TTITLE16=rszych Panow)
TTITLE17=Sygnal (1948) - J. Bielenia i zespol p/k J. Wasowskiego (BONU
TTITLE17=SY)
TTITLE18=Wracamy z wczasow (1949) - Chor Czejanda (BONUSY)
TTITLE19=Panowie i Panie (1958) - A. Mularczyk (BONUSY)
TTITLE20=Jak to dobrze (1950) - Chor Czejanda (BONUSY)
TTITLE21=Grunt to porzadek (1953) - T. Fijewski (BONUSY)
TTITLE22=Spacerek przez eterek (1953) - A. Mularczyk, Chor Czejanda (B
TTITLE22=ONUSY)
TTITLE23=Peduszko i wiosna (1950) - A. Mularczyk, B. Rudzka (BONUSY)
TTITLE24=Znow wiosna (1954) - Chor Czejanda (BONUSY)
TTITLE25=Na wyraj (1953) - Chor Czejanda (BONUSY)
TTITLE26=Gdzie trzepalko? (1954) - S. Witas, J. Bielenia, J. Przybora,
TTITLE26=A. Bogucki (BONUSY)
TTITLE27=Ka ka du (1953) - Chor Czejanda (BONUSY)
TTITLE28=Ku trzepalce latwa droga! (1954) - S. Witas, J. Bielenia, J. 
TTITLE28=Przybora, A. Bogucki (BONUSY)
TTITLE29=Ogolnie znane jest, ze krol... (1958) - A. Bogucki (BONUSY)
TTITLE30=O, ukochany malzonku ty moj (1957) - I. Kwiatkowska, T. Olsza
TTITLE30=(BONUSY)
TTITLE31=No to koniec i kropka (1958) - J. Przybora, A. Mularczyk (BON
TTITLE31=USY)
EXTD=
EXTT0=
EXTT1=
EXTT2=
EXTT3=
EXTT4=
EXTT5=
EXTT6=
EXTT7=
EXTT8=
EXTT9=
EXTT10=
EXTT11=
EXTT12=
EXTT13=
EXTT14=
EXTT15=
EXTT16=
EXTT17=
EXTT18=
EXTT19=
EXTT20=
EXTT21=
EXTT22=
EXTT23=
EXTT24=
EXTT25=
EXTT26=
EXTT27=
EXTT28=
EXTT29=
EXTT30=
EXTT31=
PLAYORDER=
